<svg width="74" height="80" viewBox="0 0 74 80" fill="none" xmlns="http://www.w3.org/2000/svg">
<g clip-path="url(#clip0_2_627)">
<path d="M37.0002 0.555664C29.0179 0.555664 22.522 7.72917 22.522 16.5448V39.8579C22.522 48.6753 29.0179 55.8471 37.0002 55.8471C44.9826 55.8471 51.4785 48.6753 51.4785 39.8579V16.5448C51.4785 7.72917 44.9826 0.555664 37.0002 0.555664ZM37.0002 52.4295C31.3119 52.4295 26.6065 47.691 25.8552 41.5667H48.1437C47.394 47.6927 42.6886 52.4295 37.0002 52.4295ZM48.2611 38.1491H25.7394V16.5448C25.7394 9.61226 30.7907 3.97325 37.0002 3.97325C43.2098 3.97325 48.2611 9.61226 48.2611 16.5448V38.1491Z" fill="#FFB400"/>
<path d="M59.5218 31.314C58.6338 31.314 57.9131 32.0795 57.9131 33.0228V39.8579C57.9131 52.1066 48.5312 62.0722 37.0001 62.0722C25.4689 62.0722 16.087 52.1066 16.087 39.8579V33.0228C16.087 32.0795 15.3663 31.314 14.4783 31.314C13.5903 31.314 12.8696 32.0795 12.8696 33.0228V39.8579C12.8696 53.4138 22.8355 64.5175 35.3914 65.4027V75.7426H27.3479C26.4599 75.7426 25.7392 76.5081 25.7392 77.4514C25.7392 78.3946 26.4599 79.1602 27.3479 79.1602H46.6522C47.5402 79.1602 48.2609 78.3946 48.2609 77.4514C48.2609 76.5081 47.5402 75.7426 46.6522 75.7426H38.6088V65.4027C51.1646 64.5175 61.1305 53.4138 61.1305 39.8579V33.0228C61.1305 32.0795 60.4098 31.314 59.5218 31.314Z" fill="#FFB400"/>
</g>
<defs>
<clipPath id="clip0_2_627">
<rect width="74" height="78.6044" fill="white" transform="translate(0 0.555664)"/>
</clipPath>
</defs>
</svg>
